<svg width="88" height="19" viewBox="0 0 88 19" fill="none" xmlns="http://www.w3.org/2000/svg">
<path d="M6.6 18C4.12 18 2.88 16.6 2.88 13.8V7.368H0.984C0.824 7.368 0.696 7.32 0.6 7.224C0.504 7.128 0.456 7 0.456 6.84V6.072C0.456 5.912 0.504 5.784 0.6 5.688C0.696 5.576 0.824 5.52 0.984 5.52H2.88V1.512C2.88 1.352 2.928 1.224 3.024 1.128C3.12 1.016 3.248 0.959999 3.408 0.959999H4.464C4.624 0.959999 4.752 1.016 4.848 1.128C4.96 1.224 5.016 1.352 5.016 1.512V5.52H7.992C8.152 5.52 8.28 5.576 8.376 5.688C8.488 5.784 8.544 5.912 8.544 6.072V6.84C8.544 7 8.488 7.128 8.376 7.224C8.28 7.32 8.152 7.368 7.992 7.368H5.016V13.632C5.016 14.448 5.144 15.064 5.4 15.48C5.672 15.896 6.128 16.104 6.768 16.104H8.232C8.392 16.104 8.52 16.16 8.616 16.272C8.712 16.368 8.76 16.496 8.76 16.656V17.448C8.76 17.608 8.712 17.744 8.616 17.856C8.52 17.952 8.392 18 8.232 18H6.6ZM11.6807 18C11.5207 18 11.3847 17.952 11.2727 17.856C11.1767 17.744 11.1287 17.608 11.1287 17.448V1.512C11.1287 1.336 11.1767 1.2 11.2727 1.104C11.3847 1.008 11.5207 0.959999 11.6807 0.959999H12.7847C12.9607 0.959999 13.0967 1.008 13.1927 1.104C13.2887 1.2 13.3367 1.336 13.3367 1.512V7.104C13.8007 6.512 14.3447 6.064 14.9687 5.76C15.6087 5.44 16.3927 5.28 17.3207 5.28C18.8567 5.28 20.0487 5.776 20.8967 6.768C21.7607 7.744 22.1927 9.04 22.1927 10.656V17.448C22.1927 17.608 22.1367 17.744 22.0247 17.856C21.9287 17.952 21.8007 18 21.6407 18H20.5127C20.3527 18 20.2167 17.952 20.1047 17.856C20.0087 17.744 19.9607 17.608 19.9607 17.448V10.8C19.9607 9.648 19.6807 8.752 19.1207 8.112C18.5607 7.472 17.7527 7.152 16.6967 7.152C15.6727 7.152 14.8567 7.48 14.2487 8.136C13.6407 8.776 13.3367 9.664 13.3367 10.8V17.448C13.3367 17.608 13.2807 17.744 13.1687 17.856C13.0727 17.952 12.9447 18 12.7847 18H11.6807ZM26.2348 18C26.0748 18 25.9388 17.952 25.8268 17.856C25.7308 17.744 25.6828 17.608 25.6828 17.448V6.096C25.6828 5.936 25.7308 5.8 25.8268 5.688C25.9388 5.576 26.0748 5.52 26.2348 5.52H27.2428C27.4188 5.52 27.5548 5.576 27.6508 5.688C27.7628 5.784 27.8188 5.92 27.8188 6.096V7.152C28.4748 6.064 29.5868 5.52 31.1548 5.52H32.0908C32.2668 5.52 32.4028 5.568 32.4988 5.664C32.5948 5.76 32.6428 5.896 32.6428 6.072V6.96C32.6428 7.12 32.5948 7.256 32.4988 7.368C32.4028 7.464 32.2668 7.512 32.0908 7.512H30.7228C29.8428 7.512 29.1468 7.768 28.6348 8.28C28.1388 8.792 27.8908 9.488 27.8908 10.368V17.448C27.8908 17.608 27.8348 17.744 27.7228 17.856C27.6108 17.952 27.4748 18 27.3148 18H26.2348ZM39.4159 18.24C37.7839 18.24 36.4799 17.736 35.5039 16.728C34.5279 15.704 33.9919 14.312 33.8959 12.552L33.8719 11.736L33.8959 10.944C33.9919 9.216 34.5279 7.84 35.5039 6.816C36.4799 5.792 37.7839 5.28 39.4159 5.28C41.1759 5.28 42.5359 5.84 43.4959 6.96C44.4719 8.08 44.9599 9.6 44.9599 11.52V11.952C44.9599 12.112 44.9039 12.248 44.7919 12.36C44.6959 12.456 44.5679 12.504 44.4079 12.504H36.0799V12.72C36.1279 13.76 36.4479 14.648 37.0399 15.384C37.6319 16.12 38.4159 16.488 39.3919 16.488C40.1439 16.488 40.7519 16.344 41.2159 16.056C41.6959 15.752 42.0559 15.44 42.2959 15.12C42.4399 14.928 42.5519 14.816 42.6319 14.784C42.7119 14.736 42.8479 14.712 43.0399 14.712H44.0959C44.2399 14.712 44.3599 14.752 44.4559 14.832C44.5679 14.912 44.6239 15.016 44.6239 15.144C44.6239 15.496 44.4079 15.92 43.9759 16.416C43.5439 16.912 42.9279 17.344 42.1279 17.712C41.3439 18.064 40.4399 18.24 39.4159 18.24ZM42.7759 10.872V10.8C42.7759 9.68 42.4719 8.768 41.8639 8.064C41.2559 7.36 40.4399 7.008 39.4159 7.008C38.3759 7.008 37.5599 7.36 36.9679 8.064C36.3759 8.768 36.0799 9.68 36.0799 10.8V10.872H42.7759ZM52.8221 18.24C51.1901 18.24 49.8861 17.736 48.9101 16.728C47.9341 15.704 47.3981 14.312 47.3021 12.552L47.2781 11.736L47.3021 10.944C47.3981 9.216 47.9341 7.84 48.9101 6.816C49.8861 5.792 51.1901 5.28 52.8221 5.28C54.5821 5.28 55.9421 5.84 56.9021 6.96C57.8781 8.08 58.3661 9.6 58.3661 11.52V11.952C58.3661 12.112 58.3101 12.248 58.1981 12.36C58.1021 12.456 57.9741 12.504 57.8141 12.504H49.4861V12.72C49.5341 13.76 49.8541 14.648 50.4461 15.384C51.0381 16.12 51.8221 16.488 52.7981 16.488C53.5501 16.488 54.1581 16.344 54.6221 16.056C55.1021 15.752 55.4621 15.44 55.7021 15.12C55.8461 14.928 55.9581 14.816 56.0381 14.784C56.1181 14.736 56.2541 14.712 56.4461 14.712H57.5021C57.6461 14.712 57.7661 14.752 57.8621 14.832C57.9741 14.912 58.0301 15.016 58.0301 15.144C58.0301 15.496 57.8141 15.92 57.3821 16.416C56.9501 16.912 56.3341 17.344 55.5341 17.712C54.7501 18.064 53.8461 18.24 52.8221 18.24ZM56.1821 10.872V10.8C56.1821 9.68 55.8781 8.768 55.2701 8.064C54.6621 7.36 53.8461 7.008 52.8221 7.008C51.7821 7.008 50.9661 7.36 50.3741 8.064C49.7821 8.768 49.4861 9.68 49.4861 10.8V10.872H56.1821ZM66.8524 18.24C65.5724 18.24 64.4604 17.984 63.5164 17.472C62.5884 16.944 61.8764 16.24 61.3804 15.36C60.9004 14.48 60.6604 13.52 60.6604 12.48C60.6604 11.104 61.2124 9.632 62.3164 8.064L66.9004 1.68C66.9164 1.664 66.9564 1.608 67.0204 1.512C67.1004 1.416 67.1964 1.344 67.3084 1.296C67.4204 1.232 67.5484 1.2 67.6924 1.2H68.8684C69.0124 1.2 69.1244 1.256 69.2044 1.368C69.3004 1.464 69.3484 1.584 69.3484 1.728C69.3484 1.808 69.3084 1.912 69.2284 2.04L65.7244 6.936C66.1404 6.84 66.6044 6.792 67.1164 6.792C68.2844 6.792 69.3084 7.056 70.1884 7.584C71.0844 8.096 71.7724 8.784 72.2524 9.648C72.7484 10.496 72.9964 11.432 72.9964 12.456C72.9964 13.48 72.7484 14.44 72.2524 15.336C71.7724 16.216 71.0684 16.92 70.1404 17.448C69.2124 17.976 68.1164 18.24 66.8524 18.24ZM66.8284 16.248C67.5324 16.248 68.1804 16.104 68.7724 15.816C69.3644 15.528 69.8364 15.104 70.1884 14.544C70.5404 13.968 70.7164 13.28 70.7164 12.48C70.7164 11.696 70.5324 11.024 70.1644 10.464C69.8124 9.888 69.3404 9.456 68.7484 9.168C68.1564 8.864 67.5164 8.712 66.8284 8.712C66.1404 8.712 65.5004 8.864 64.9084 9.168C64.3164 9.456 63.8444 9.888 63.4924 10.464C63.1404 11.024 62.9644 11.696 62.9644 12.48C62.9644 13.28 63.1404 13.968 63.4924 14.544C63.8444 15.104 64.3164 15.528 64.9084 15.816C65.5004 16.104 66.1404 16.248 66.8284 16.248ZM81.459 18.24C79.395 18.24 77.883 17.64 76.923 16.44C75.979 15.224 75.475 13.64 75.411 11.688L75.387 9.624L75.411 7.488C75.459 5.552 75.963 3.984 76.923 2.784C77.899 1.568 79.411 0.959999 81.459 0.959999C83.523 0.959999 85.035 1.568 85.995 2.784C86.971 3.984 87.483 5.552 87.531 7.488C87.547 7.936 87.555 8.648 87.555 9.624C87.555 10.568 87.547 11.256 87.531 11.688C87.467 13.64 86.955 15.224 85.995 16.44C85.051 17.64 83.539 18.24 81.459 18.24ZM81.459 16.248C82.691 16.248 83.619 15.84 84.243 15.024C84.867 14.208 85.195 13.056 85.227 11.568C85.243 11.104 85.251 10.44 85.251 9.576C85.251 8.696 85.243 8.04 85.227 7.608C85.195 6.136 84.859 4.992 84.219 4.176C83.595 3.344 82.675 2.928 81.459 2.928C80.243 2.928 79.323 3.344 78.699 4.176C78.075 4.992 77.747 6.136 77.715 7.608L77.691 9.576L77.715 11.568C77.747 13.056 78.075 14.208 78.699 15.024C79.323 15.84 80.243 16.248 81.459 16.248Z" fill="#4673E4"/>
</svg>
